<?xml version="1.0" encoding="UTF-8" standalone="no"?>
<!-- Created with Inkscape (http://www.inkscape.org/) -->

<svg
   xmlns:dc="http://purl.org/dc/elements/1.1/"
   xmlns:cc="http://creativecommons.org/ns#"
   xmlns:rdf="http://www.w3.org/1999/02/22-rdf-syntax-ns#"
   xmlns:svg="http://www.w3.org/2000/svg"
   xmlns="http://www.w3.org/2000/svg"
   xmlns:sodipodi="http://sodipodi.sourceforge.net/DTD/sodipodi-0.dtd"
   xmlns:inkscape="http://www.inkscape.org/namespaces/inkscape"
   id="svg3965"
   version="1.1"
   inkscape:version="0.48.3.1 r9886"
   width="24"
   height="24"
   sodipodi:docname="icon.svg">
  <metadata
     id="metadata3971">
    <rdf:RDF>
      <cc:Work
         rdf:about="">
        <dc:format>image/svg+xml</dc:format>
        <dc:type
           rdf:resource="http://purl.org/dc/dcmitype/StillImage" />
        <dc:title></dc:title>
      </cc:Work>
    </rdf:RDF>
  </metadata>
  <defs
     id="defs3969" />
  <sodipodi:namedview
     pagecolor="#ffffff"
     bordercolor="#666666"
     borderopacity="1"
     objecttolerance="10"
     gridtolerance="10"
     guidetolerance="10"
     inkscape:pageopacity="0"
     inkscape:pageshadow="2"
     inkscape:window-width="1920"
     inkscape:window-height="1028"
     id="namedview3967"
     showgrid="false"
     inkscape:zoom="16"
     inkscape:cx="22.614799"
     inkscape:cy="6.6317729"
     inkscape:window-x="0"
     inkscape:window-y="27"
     inkscape:window-maximized="1"
     inkscape:current-layer="svg3965"
     showguides="true"
     inkscape:guide-bbox="true" />
  <path
     inkscape:connector-curvature="0"
     id="rect3975"
     d="m 2.9893638,0.02201114 4.5504134,0 0,4.52499206 -4.5504134,0 z"
     style="fill:#000000;fill-opacity:1;stroke:none" />
  <g
     id="g3983"
     transform="matrix(1.4998569,0,0,1.4998569,40.790845,7.5721375)"
     style="fill:#000000" />
  <path
     inkscape:connector-curvature="0"
     id="rect3987-7"
     d="m 24.058836,5.9999888 -4.524992,0 0,9.0245622 4.524992,0 z"
     style="fill:#000000;fill-opacity:1;stroke:none" />
  <path
     inkscape:connector-curvature="0"
     id="rect3989-2"
     d="m 22.551897,16.46899 -6.002511,0 0,7.529282 6.002511,0 z"
     style="fill:#000000;fill-opacity:1;stroke:none" />
  <path
     inkscape:connector-curvature="0"
     id="rect3993-2"
     d="m 22.551812,15.006618 -3.017713,0 0,1.501356 3.017713,0 z"
     style="fill:#000000;fill-opacity:1;stroke:none" />
  <path
     id="path4263"
     style="fill:#000000;fill-opacity:1;stroke:none"
     d="m 3.0331244,2.2579825 0,-2.2029148 2.2497853,0 2.2497854,0 0,2.2029148 0,2.2029148 -2.2497854,0 -2.2497853,0 0,-2.2029148 z m -2.99971384,8.2492125 0,-4.4526997 2.24978534,0 2.2497854,0 0,4.4526997 0,4.452701 -2.2497854,0 -2.24978534,0 0,-4.452701 z m 0,0 0,-4.4526997 2.24978534,0 2.2497854,0 0,4.4526997 0,4.452701 -2.2497854,0 -2.24978534,0 0,-4.452701 z m 0,0 0,-4.4526997 2.24978534,0 2.2497854,0 0,4.4526997 0,4.452701 -2.2497854,0 -2.24978534,0 0,-4.452701 z m 3.35233574,4.480142 c 0.1166063,-0.02242 0.2853395,-0.02157 0.3749642,0.0019 0.089625,0.02346 -0.00577,0.0418 -0.2120103,0.04077 -0.2062304,-10e-4 -0.2795596,-0.02023 -0.1629539,-0.04266 z m -3.35233574,-4.480142 0,-4.4526997 2.24978534,0 2.2497854,0 0,4.4526997 0,4.452701 -2.2497854,0 -2.24978534,0 0,-4.452701 z m 4.54291534,0 c 1.83e-5,-2.4747634 0.012119,-3.4737047 0.026896,-2.2198691 0.014774,1.2538359 0.014759,3.2786431 -3.33e-5,4.4995711 -0.014789,1.220928 -0.02688,0.195062 -0.026863,-2.279702 z m -3.0430584,5.483852 0,-1.499857 1.4998569,0 1.4998569,0 0,1.499857 0,1.499857 -1.4998569,0 -1.4998569,0 0,-1.499857 z m 0,-0.234353 0,-0.703057 1.4998569,0 1.4998569,0 0,0.703057 0,0.703058 -1.4998569,0 -1.4998569,0 0,-0.703058 z m 0.1171763,-0.767676 c 0.090225,-0.02358 0.2378678,-0.02358 0.3280937,0 0.090225,0.02358 0.016405,0.04287 -0.1640469,0.04287 -0.1804515,0 -0.2542727,-0.01929 -0.1640468,-0.04287 z m -1.61703324,-4.481823 0,-4.4526997 2.24978534,0 2.2497854,0 0,4.4526997 0,4.452701 -2.2497854,0 -2.24978534,0 0,-4.452701 z m 0,0 0,-4.4526997 2.24978534,0 2.2497854,0 0,4.4526997 0,4.452701 -2.2497854,0 -2.24978534,0 0,-4.452701 z m 2.22635004,4.4767 c 0.42535,-0.01737 1.1213774,-0.01737 1.5467275,0 0.4253499,0.01737 0.077337,0.03158 -0.7733637,0.03158 -0.8507001,0 -1.1987139,-0.01425 -0.7733638,-0.03158 z m -0.7373836,0.04417 3.0192119,0 0,1.501357 -3.0192119,0 z m -5.76e-5,1.462371 6.0025115,0 0,7.529282 -6.0025115,0 z m -1.50724582,-10.469 4.52499212,0 0,9.024563 -4.52499212,0 z m 16.56621242,14.219352 0,-3.726207 1.476422,0 1.476421,0 0,-5.249498 0,-5.2494996 2.249786,0 2.249785,0 0,4.4995706 0,4.49957 -0.749928,0 -0.749929,0 0,4.476136 0,4.476135 -2.976278,0 -2.976279,0 0,-3.726207 z m -0.07225,-20.21877686 4.550414,0 0,4.52499206 -4.550414,0 z m -8.9909851,5.99765456 8.9946421,0 0,9.0591353 -8.9946421,0 z m 1.4919726,8.1766433 6.0054275,0 0,9.827811 -6.0054275,0 z m 1.5040485,-14.17429875 3.025135,0 0,1.57612085 -3.025135,0 z m -1.4998567,1.52527825 6.0248487,0 0,2.9997138 -6.0248487,0 z" />
</svg>
